# xmcd CD database file
#
# Track frame offsets:
#	150
#	22296
#	39197
#	58771
#	77803
#	93866
#	121397
#	140319
#	156355
#	177906
#	195671
#	212099
#	227915
#	247026
#	264787
#
# Disc length: 3748 seconds
#
# Revision: 0
# Processed by: cddbd v1.5.2PL0 Copyright (c) Steve Scherf et al.
# Submitted via: CDex 1.70beta2
#
DISCID=cc0ea20f
DTITLE=Various Artist - Los Grandes Templos De La Salsa CD 1 Gran Caimán
DYEAR=1900
DGENRE=Salsa
TTITLE0=Puerto Rican Power - Voy A Ti Voy A Mí
TTITLE1=Tito Gomez - Tito Rojas - Quién Me Iba A Decir
TTITLE2=Sonora Latina - Veneno
TTITLE3=Grupo Niche - Han Cogido La Cosa
TTITLE4=Pedro Jesús - Quiero Darte Todo
TTITLE5=Roberto Roena - Mi Mambo Pide Campana
TTITLE6=Mimi Ibarra - Propiedad Privada
TTITLE7=Manikkomio - Mi Doncella
TTITLE8=Rubby Pérez - Tú Vas A Volar
TTITLE9=Jossie Esteban - Vive Tu Vida
TTITLE10=K-Libre - Remenea
TTITLE11=Nelson De La Olla Y La Banda Chula - Donde Están
TTITLE12=Banda Gorda - Ponte Dura
TTITLE13=Jose Manuel - Spanish Girl
TTITLE14=George Y Russel - Suavemente
EXTD=
EXTT0=
EXTT1=
EXTT2=
EXTT3=
EXTT4=
EXTT5=
EXTT6=
EXTT7=
EXTT8=
EXTT9=
EXTT10=
EXTT11=
EXTT12=
EXTT13=
EXTT14=
PLAYORDER=
